<svg xmlns="http://www.w3.org/2000/svg" width="20" height="20" fill="none" viewBox="0 0 20 20"><path fill="#515978" fill-rule="evenodd" d="M17.548 2.467L18.824 3a1.923 1.923 0 011.038 2.486l-2.314 5.58v-8.6zM13.728 1a1.91 1.91 0 011.905 1.905v6.038L12.348 1h1.38z" clip-rule="evenodd"></path><path fill="#C6CFD9" fill-rule="evenodd" d="M4.976 17.924L.252 6.524a1.9 1.9 0 011.039-2.476L8.3 1.143a1.902 1.902 0 012.476 1.029l4.723 11.4c.105.247.152.504.143.761a1.904 1.904 0 01-1.171 1.715l-7.02 2.904a1.917 1.917 0 01-.752.143 1.917 1.917 0 01-1.724-1.171z" clip-rule="evenodd"></path></svg>