<svg xmlns="http://www.w3.org/2000/svg" width="16" height="15" fill="none" viewBox="0 0 16 15"><path fill="#5F6C7D" fill-rule="evenodd" d="M15.08 1.216l.84 3.498c.2.816.017 1.656-.495 2.312a1.499 1.499 0 01-.15.153l-.074.071v5.554c0 .88-.72 1.6-1.6 1.6H2.395c-.88 0-1.6-.72-1.6-1.6V7.25a1.533 1.533 0 00-.092-.09C.657 7.114.61 7.07.572 7.017a2.7 2.7 0 01-.496-2.304l.84-3.498C1.084.504 1.716 0 2.436 0h11.116c.728 0 1.353.496 1.529 1.216zm-.712 3.874l-.84-3.497-1.544.008.464 3.889c.056.52.48.912.968.912.4 0 .64-.232.752-.376.208-.264.28-.6.2-.936zM8.798 1.6h1.569l.432 3.618c.04.312-.056.624-.264.856-.176.208-.432.328-.76.328-.536 0-.976-.472-.976-1.048V1.6zm-3.168 0l-.44 3.618c-.033.312.063.624.263.856.193.208.44.328.713.328.592 0 1.032-.472 1.032-1.048V1.6H5.63zM1.628 5.09l.808-3.49h1.577l-.464 3.89c-.064.52-.48.912-.968.912a.921.921 0 01-.745-.376 1.058 1.058 0 01-.208-.936zm.768 2.889v4.825h11.212V7.98a1.273 1.273 0 00-.065.01.67.67 0 01-.119.014 2.504 2.504 0 01-1.792-.76c-.48.48-1.12.76-1.793.76-.72 0-1.36-.289-1.833-.745a2.537 2.537 0 01-1.784.745c-.729 0-1.369-.28-1.849-.76a2.504 2.504 0 01-1.792.76.67.67 0 01-.12-.014 1.297 1.297 0 00-.065-.01z" clip-rule="evenodd"></path></svg>