<svg xmlns="http://www.w3.org/2000/svg" width="24" height="27" fill="none" viewBox="0 0 24 27"><path fill="#B5C1CD" fill-rule="evenodd" d="M22.313 22.582a.684.684 0 00-.064.004h-4.643a2.67 2.67 0 01-2.666-2.667v-1.2a2.67 2.67 0 012.666-2.666h4.642a.524.524 0 01.065.003 1.114 1.114 0 00.065-.003h.404v-3.919H2.369a.268.268 0 01-.267-.267v-.481a.04.04 0 01.002-.011l.002-.01a.103.103 0 00-.002-.014l-.002-.016c0-.44.48-.8 1.066-.8H8.15c.06-.434.148-.913.272-1.416H2.667A2.674 2.674 0 000 11.786v12.032c0 1.466 1.2 2.666 2.667 2.666h19.581c.294 0 .534-.24.534-.533v-3.365h-.404c-.013 0-.026 0-.039-.002l-.026-.002zm-7.96-12.046a6.718 6.718 0 011.711-.716v.716h-1.712zm3.03 8.783a.8.8 0 101.601-.002.8.8 0 00-1.602.002zm4.995-2.2h.404c.586 0 1.067.48 1.067 1.067v2.267a1.07 1.07 0 01-1.067 1.066h-.404a.15.15 0 01-.024-.002.161.161 0 00-.02-.002l-.026.002-.059.002h-4.643c-.88 0-1.6-.72-1.6-1.6v-1.2c0-.88.72-1.6 1.6-1.6h4.643l.06.003.025.002.02-.002c.008-.002.015-.003.024-.003zm-.526-8h.396c.294 0 .534.24.534.534v.883h-2.214l1.284-1.417z" clip-rule="evenodd"></path><path fill="#8397AB" fill-rule="evenodd" d="M17.404 8.049c.09 0 .176-.002.26-.005v2.779c0 .293.162.355.359.138l4.61-5.085a.594.594 0 00-.004-.786L18.027.127c-.2-.215-.362-.15-.362.142v3.179a6.819 6.819 0 00-.26-.006c-6.252 0-7.5 5.35-7.74 7.895h1.198c1.27-1.372 3.574-3.288 6.541-3.288z" clip-rule="evenodd"></path></svg>